<svg xmlns="http://www.w3.org/2000/svg" width="9" height="10" viewBox="0 0 9 10">
  <defs>
    <style>
      .cls-1 {
        fill: #727272;
        fill-rule: evenodd;
      }
    </style>
  </defs>
  <path id="angle_right" class="cls-1" d="M957.907,320.769l-4.338-4.66a0.279,0.279,0,0,0-.428,0l-0.465.5a0.331,0.331,0,0,0,0,.46l3.658,3.93-3.658,3.93a0.332,0.332,0,0,0,0,.461l0.465,0.5a0.279,0.279,0,0,0,.428,0l4.338-4.66A0.326,0.326,0,0,0,958,321a0.33,0.33,0,0,0-.093-0.23h0Zm0,0-3.482.23a0.325,0.325,0,0,0-.093-0.23L950,316.109a0.279,0.279,0,0,0-.428,0l-0.466.5a0.331,0.331,0,0,0,0,.46l3.658,3.93-3.658,3.93a0.332,0.332,0,0,0,0,.461l0.466,0.5a0.279,0.279,0,0,0,.428,0l4.337-4.66a0.322,0.322,0,0,0,.093-0.23h0Zm0,0" transform="translate(-949 -316)"/>
</svg>
