<svg xmlns="http://www.w3.org/2000/svg" width="16" height="16" viewBox="0 0 16 16">
  <defs>
    <style>
      .cls-1 {
        fill: #727272;
        fill-rule: evenodd;
      }
    </style>
  </defs>
  <path id="home_icon" class="cls-1" d="M875,310l-7.771,6.858a0.663,0.663,0,0,0-.064.924h0a0.639,0.639,0,0,0,.91.065l0.286-.253v6.44A1.95,1.95,0,0,0,870.294,326H873.9v-5.274a1.137,1.137,0,0,1,1.128-1.146h0a1.137,1.137,0,0,1,1.128,1.146V326H879.7a1.95,1.95,0,0,0,1.934-1.966v-6.44l0.286,0.253a0.638,0.638,0,0,0,.91-0.065h0a0.663,0.663,0,0,0-.065-0.924Zm5.35,14.034a0.651,0.651,0,0,1-.645.656h-2.256v-3.964a2.437,2.437,0,0,0-2.417-2.456h0a2.437,2.437,0,0,0-2.417,2.456v3.964h-2.32a0.651,0.651,0,0,1-.645-0.656v-7.577l5.35-4.722,5.35,4.722v7.577Z" transform="translate(-867 -310)"/>
</svg>
